<svg width="128" height="128" viewBox="0 0 128 128" xmlns="http://www.w3.org/2000/svg">
  <defs>
    <linearGradient id="cc" x1="14" y1="14" x2="114" y2="114" gradientUnits="userSpaceOnUse">
      <stop offset="0" stop-color="#35c977"/>
      <stop offset="0.55" stop-color="#22a89a"/>
      <stop offset="1" stop-color="#1e8fb2"/>
    </linearGradient>
  </defs>
  <!-- Brand tile -->
  <rect x="4" y="4" width="120" height="120" rx="27" fill="url(#cc)"/>
  <rect x="4.5" y="4.5" width="119" height="119" rx="26.5" fill="none" stroke="#ffffff" stroke-opacity="0.14" stroke-width="1"/>
  <!-- Monitor -->
  <g fill="none" stroke="#ffffff" stroke-width="6" stroke-linejoin="round" stroke-linecap="round">
    <rect x="24" y="34" width="52" height="40" rx="6"/>
    <path d="M42 82 h16 M50 74 v8"/>
    <!-- Phone -->
    <rect x="84" y="40" width="26" height="48" rx="6"/>
    <path d="M92 46 h10" stroke-width="4"/>
    <circle cx="97" cy="82.5" r="2.4" fill="#ffffff" stroke="none"/>
    <!-- Call arc connecting the two devices -->
    <path d="M44 60 q20 -18 44 -6" stroke-width="5" stroke-dasharray="0 0"/>
  </g>
  <!-- Handset badge -->
  <g transform="translate(56 52)">
    <circle cx="9" cy="9" r="15" fill="#ffffff"/>
    <path d="M4.4 5.1c-.5.4-.8 1-.7 1.7.3 2.2 1.4 4.3 3 5.9 1.6 1.6 3.7 2.7 5.9 3 .7.1 1.3-.2 1.7-.7l.9-1.2c.3-.5.2-1.1-.2-1.4l-2-1.4c-.4-.3-.9-.2-1.2.1l-.7.8c-1.2-.6-2.2-1.6-2.8-2.8l.8-.7c.3-.3.4-.8.1-1.2l-1.4-2c-.3-.4-.9-.5-1.4-.2z" fill="#1e8fb2"/>
  </g>
</svg>
